<svg xmlns="http://www.w3.org/2000/svg" width="47.198" height="23.841" viewBox="0 0 47.198 23.841">
  <g id="logo" transform="translate(-231.19 -242.16)">
    <path id="Path_12" data-name="Path 12" d="M251.99,248.9c-.5.516-.9.94-.9.943s-.572.6-1.277,1.334.84,1.336,3.429,1.336h6.127a11.529,11.529,0,0,0,5.557-1.319,14.817,14.817,0,0,0,3.122-2.665,4.489,4.489,0,0,0,1.586-3.268,3.293,3.293,0,0,0-3.207-3.1H232.8a1.608,1.608,0,0,0-1.607,1.607.91.91,0,0,0,.007.113,1.227,1.227,0,0,0,.052.308.252.252,0,0,0,.014.056,4.728,4.728,0,0,0,4.6,3.709h15.741C252.315,247.954,252.488,248.378,251.99,248.9Z" fill="#fff"/>
    <path id="Path_13" data-name="Path 13" d="M373.8,414.14v.012a1.609,1.609,0,0,1-1.607,1.608H338.631a3.27,3.27,0,0,1-3.271-3.271,3.809,3.809,0,0,1,1.115-2.47,19.82,19.82,0,0,1,3.243-3.294,6.011,6.011,0,0,1,2.418-.787,18.675,18.675,0,0,1,3.264-.278h6.127c2.592,0,3.782.969,2.641,2.154a3.326,3.326,0,0,0-.588.8h0c-.4.793-.045,1.357.992,1.357h14.549a4.675,4.675,0,0,1,2.53.742h0a4.73,4.73,0,0,1,2.064,2.924A1.536,1.536,0,0,1,373.8,414.14Z" transform="translate(-95.416 -149.759)" fill="#fff"/>
  </g>
</svg>
